HIERARCHY
ROOT Hips
{
  OFFSET 5.72205e-005 65.662 3.42586
  CHANNELS 6 Xposition Yposition Zposition Zrotation Xrotation Yrotation
  JOINT Chest
  {
    OFFSET 0 8.7983 -4.7612
    CHANNELS 6 Xposition Yposition Zposition Zrotation Xrotation Yrotation
    JOINT Chest2
    {
      OFFSET 0 8.0291 0.4195
      CHANNELS 6 Xposition Yposition Zposition Zrotation Xrotation Yrotation
      JOINT Chest3
      {
        OFFSET 0 9.9351 -2.2114
        CHANNELS 6 Xposition Yposition Zposition Zrotation Xrotation Yrotation
        JOINT Neck
        {
          OFFSET 0 22.3885 -0.4656
          CHANNELS 6 Xposition Yposition Zposition Zrotation Xrotation Yrotation
          JOINT Head
          {
            OFFSET -0.0001 12.643 3.4389
            CHANNELS 6 Xposition Yposition Zposition Zrotation Xrotation Yrotation
            End Site
            {
              OFFSET 0.0001 17.6655 0.5274
            }
          }
        }
        JOINT LeftCollar
        {
          OFFSET 2.2603 21.606 7.4023
          CHANNELS 6 Xposition Yposition Zposition Zrotation Xrotation Yrotation
          JOINT LeftShoulder
          {
            OFFSET 13.5163 -1.1332 -5.0146
            CHANNELS 6 Xposition Yposition Zposition Zrotation Xrotation Yrotation
            JOINT LeftElbow
            {
              OFFSET -0.0995 -28.05 -0.2431
              CHANNELS 6 Xposition Yposition Zposition Zrotation Xrotation Yrotation
              JOINT LeftWrist
              {
                OFFSET 0.0679 -23.3996 -0.1402
                CHANNELS 6 Xposition Yposition Zposition Zrotation Xrotation Yrotation
                JOINT LeftFinger1
                {
                  OFFSET 0.7932 -9.069 2.5189
                  CHANNELS 6 Xposition Yposition Zposition Zrotation Xrotation Yrotation
                  JOINT LeftFinger11
                  {
                    OFFSET -0.8272 -3.3923 0.5977
                    CHANNELS 6 Xposition Yposition Zposition Zrotation Xrotation Yrotation
                    JOINT LeftFinger12
                    {
                      OFFSET -0.5649 -2.3158 0.4082
                      CHANNELS 6 Xposition Yposition Zposition Zrotation Xrotation Yrotation
                      End Site
                      {
                        OFFSET -0.4919 -1.6479 0.2673
                      }
                    }
                  }
                }
                JOINT LeftFinger2
                {
                  OFFSET 0.9159 -9.2044 0.2193
                  CHANNELS 6 Xposition Yposition Zposition Zrotation Xrotation Yrotation
                  JOINT LeftFinger21
                  {
                    OFFSET 0.0117 -4.1944 -0.0248
                    CHANNELS 6 Xposition Yposition Zposition Zrotation Xrotation Yrotation
                    JOINT LeftFinger22
                    {
                      OFFSET 0.0071 -2.3249 -0.0142
                      CHANNELS 6 Xposition Yposition Zposition Zrotation Xrotation Yrotation
                      End Site
                      {
                        OFFSET -0.1475 -2.0882 0.0028
                      }
                    }
                  }
                }
                JOINT LeftFinger3
                {
                  OFFSET 0.6113 -8.7231 -2.0637
                  CHANNELS 6 Xposition Yposition Zposition Zrotation Xrotation Yrotation
                  JOINT LeftFinger31
                  {
                    OFFSET -0.1927 -3.8059 -0.2383
                    CHANNELS 6 Xposition Yposition Zposition Zrotation Xrotation Yrotation
                    JOINT LeftFinger32
                    {
                      OFFSET -0.1091 -2.1688 -0.1362
                      CHANNELS 6 Xposition Yposition Zposition Zrotation Xrotation Yrotation
                      End Site
                      {
                        OFFSET -0.2358 -1.9176 -0.0906
                      }
                    }
                  }
                }
                JOINT LeftFinger4
                {
                  OFFSET -0.6151 -8.0947 -3.5641
                  CHANNELS 6 Xposition Yposition Zposition Zrotation Xrotation Yrotation
                  JOINT LeftFinger41
                  {
                    OFFSET -0.4882 -2.341 -0.6462
                    CHANNELS 6 Xposition Yposition Zposition Zrotation Xrotation Yrotation
                    JOINT LeftFinger42
                    {
                      OFFSET -0.3575 -1.7167 -0.4742
                      CHANNELS 6 Xposition Yposition Zposition Zrotation Xrotation Yrotation
                      End Site
                      {
                        OFFSET -0.4187 -1.5237 -0.3496
                      }
                    }
                  }
                }
                JOINT LeftFinger0
                {
                  OFFSET -1.42 -1.8761 1.4223
                  CHANNELS 6 Xposition Yposition Zposition Zrotation Xrotation Yrotation
                  JOINT LeftFinger01
                  {
                    OFFSET -1.1471 -3.4929 2.6334
                    CHANNELS 6 Xposition Yposition Zposition Zrotation Xrotation Yrotation
                    JOINT LeftFinger02
                    {
                      OFFSET -0.823 -2.3 1.6571
                      CHANNELS 6 Xposition Yposition Zposition Zrotation Xrotation Yrotation
                      End Site
                      {
                        OFFSET -0.5822 -1.6914 1.1582
                      }
                    }
                  }
                }
              }
            }
          }
        }
        JOINT RightCollar
        {
          OFFSET -2.2603 21.606 7.4023
          CHANNELS 6 Xposition Yposition Zposition Zrotation Xrotation Yrotation
          JOINT RightShoulder
          {
            OFFSET -13.5187 -1.1334 -5.0155
            CHANNELS 6 Xposition Yposition Zposition Zrotation Xrotation Yrotation
            JOINT RightElbow
            {
              OFFSET 0.0994 -28.0499 -0.2431
              CHANNELS 6 Xposition Yposition Zposition Zrotation Xrotation Yrotation
              JOINT RightWrist
              {
                OFFSET -0.0679 -23.3996 -0.1402
                CHANNELS 6 Xposition Yposition Zposition Zrotation Xrotation Yrotation
                JOINT RightFinger1
                {
                  OFFSET -0.7932 -9.0691 2.5189
                  CHANNELS 6 Xposition Yposition Zposition Zrotation Xrotation Yrotation
                  JOINT RightFinger11
                  {
                    OFFSET 0.8272 -3.3923 0.5977
                    CHANNELS 6 Xposition Yposition Zposition Zrotation Xrotation Yrotation
                    JOINT RightFinger12
                    {
                      OFFSET 0.565 -2.3158 0.4082
                      CHANNELS 6 Xposition Yposition Zposition Zrotation Xrotation Yrotation
                      End Site
                      {
                        OFFSET 0.4919 -1.6479 0.2673
                      }
                    }
                  }
                }
                JOINT RightFinger2
                {
                  OFFSET -0.916 -9.2044 0.2193
                  CHANNELS 6 Xposition Yposition Zposition Zrotation Xrotation Yrotation
                  JOINT RightFinger21
                  {
                    OFFSET -0.0117 -4.1944 -0.0248
                    CHANNELS 6 Xposition Yposition Zposition Zrotation Xrotation Yrotation
                    JOINT RightFinger22
                    {
                      OFFSET -0.0071 -2.3249 -0.0142
                      CHANNELS 6 Xposition Yposition Zposition Zrotation Xrotation Yrotation
                      End Site
                      {
                        OFFSET 0.1475 -2.0882 0.0028
                      }
                    }
                  }
                }
                JOINT RightFinger3
                {
                  OFFSET -0.6113 -8.7231 -2.0637
                  CHANNELS 6 Xposition Yposition Zposition Zrotation Xrotation Yrotation
                  JOINT RightFinger31
                  {
                    OFFSET 0.1927 -3.8059 -0.2383
                    CHANNELS 6 Xposition Yposition Zposition Zrotation Xrotation Yrotation
                    JOINT RightFinger32
                    {
                      OFFSET 0.1091 -2.1688 -0.1362
                      CHANNELS 6 Xposition Yposition Zposition Zrotation Xrotation Yrotation
                      End Site
                      {
                        OFFSET 0.2358 -1.9176 -0.0906
                      }
                    }
                  }
                }
                JOINT RightFinger4
                {
                  OFFSET 0.6151 -8.0947 -3.564
                  CHANNELS 6 Xposition Yposition Zposition Zrotation Xrotation Yrotation
                  JOINT RightFinger41
                  {
                    OFFSET 0.4882 -2.341 -0.6462
                    CHANNELS 6 Xposition Yposition Zposition Zrotation Xrotation Yrotation
                    JOINT RightFinger42
                    {
                      OFFSET 0.3574 -1.7166 -0.4742
                      CHANNELS 6 Xposition Yposition Zposition Zrotation Xrotation Yrotation
                      End Site
                      {
                        OFFSET 0.4187 -1.5237 -0.3496
                      }
                    }
                  }
                }
                JOINT RightFinger0
                {
                  OFFSET 1.4199 -1.8761 1.4221
                  CHANNELS 6 Xposition Yposition Zposition Zrotation Xrotation Yrotation
                  JOINT RightFinger01
                  {
                    OFFSET 1.1472 -3.4929 2.6336
                    CHANNELS 6 Xposition Yposition Zposition Zrotation Xrotation Yrotation
                    JOINT RightFinger02
                    {
                      OFFSET 0.8229 -2.3 1.6571
                      CHANNELS 6 Xposition Yposition Zposition Zrotation Xrotation Yrotation
                      End Site
                      {
                        OFFSET 0.5822 -1.6914 1.1582
                      }
                    }
                  }
                }
              }
            }
          }
        }
      }
    }
  }
  JOINT RightHip
  {
    OFFSET -9.412 3.9771 -0.7758
    CHANNELS 6 Xposition Yposition Zposition Zrotation Xrotation Yrotation
    JOINT RightKnee
    {
      OFFSET -0.7531 -40.938 0
      CHANNELS 6 Xposition Yposition Zposition Zrotation Xrotation Yrotation
      JOINT RightAnkle
      {
        OFFSET 0 -40.1986 0
        CHANNELS 6 Xposition Yposition Zposition Zrotation Xrotation Yrotation
        JOINT RightToe
        {
          OFFSET 0 -4.4182 9.239
          CHANNELS 6 Xposition Yposition Zposition Zrotation Xrotation Yrotation
          End Site
          {
            OFFSET 0 0 6.1981
          }
        }
      }
    }
  }
  JOINT LeftHip
  {
    OFFSET 9.4119 3.9773 -0.7758
    CHANNELS 6 Xposition Yposition Zposition Zrotation Xrotation Yrotation
    JOINT LeftKnee
    {
      OFFSET 0.7532 -40.9383 0
      CHANNELS 6 Xposition Yposition Zposition Zrotation Xrotation Yrotation
      JOINT LeftAnkle
      {
        OFFSET 0 -40.1986 0
        CHANNELS 6 Xposition Yposition Zposition Zrotation Xrotation Yrotation
        JOINT LeftToe
        {
          OFFSET 0 -4.4182 9.239
          CHANNELS 6 Xposition Yposition Zposition Zrotation Xrotation Yrotation
          End Site
          {
            OFFSET 0 0 6.1981
          }
        }
      }
    }
  }
}
MOTION
Frames:	4
Frame Time:	0.0333333
5.72205e-005 65.662 3.42586 0 0 -0 0 8.7983 -4.7612 0 0 -0 0 8.0291 0.4195 0 0 -0 0 9.9351 -2.2114 0 0 -0 0 22.3885 -0.4656 0 0 -0 -0.0001 12.643 3.4389 0 0 -0 2.2603 21.606 7.4023 0 0 -12.5014 13.5163 -1.1332 -5.0146 88.1196 14.2451 10.6914 -0.0995 -28.05 -0.2431 -0.00160068 -0.00239207 0.000740045 0.0679 -23.3996 -0.1402 -8.4365e-005 7.00714e-005 -9.52055e-007 0.7932 -9.069 2.5189 9.93923e-017 -1.98785e-016 -1.59028e-015 -0.8272 -3.3923 0.5977 9.93923e-017 -5.96354e-016 -1.59028e-015 -0.5649 -2.3158 0.4082 -9.93923e-017 -5.96354e-016 -1.59028e-015 0.9159 -9.2044 0.2193 9.93923e-017 -1.98785e-016 -1.59028e-015 0.0117 -4.1944 -0.0248 -0.0128176 0.00232552 8.52707e-005 0.0071 -2.3249 -0.0142 9.93923e-017 5.96354e-016 -0 0.6113 -8.7231 -2.0637 9.93923e-017 -1.98785e-016 -1.59028e-015 -0.1927 -3.8059 -0.2383 -0.0160551 0.00299681 0.000857156 -0.1091 -2.1688 -0.1362 -2.48481e-016 0 3.18055e-015 -0.6151 -8.0947 -3.5641 9.93923e-017 -1.98785e-016 -1.59028e-015 -0.4882 -2.341 -0.6462 -0.0125865 0.0031206 0.00282719 -0.3575 -1.7167 -0.4742 0 1.98785e-016 -0 -1.42 -1.8761 1.4223 9.93923e-017 -1.98785e-016 -1.59028e-015 -1.1471 -3.4929 2.6334 9.93923e-017 -5.96354e-016 -1.59028e-015 -0.823 -2.3 1.6571 -9.93923e-017 -5.96354e-016 -1.59028e-015 -2.2603 21.606 7.4023 -0.865644 0.16582 7.03859 -13.5187 -1.1334 -5.0155 -88.0329 10.2057 -10.5567 0.0994 -28.0499 -0.2431 0.0015593 -0.00248883 -0.000788628 -0.0679 -23.3996 -0.1402 7.87605e-005 4.10553e-005 1.24965e-005 -0.7932 -9.0691 2.5189 -3.97569e-016 -7.95139e-016 3.18055e-015 0.8272 -3.3923 0.5977 -1.98785e-016 -3.97569e-016 3.18055e-015 0.565 -2.3158 0.4082 -1.98785e-016 0 3.18055e-015 -0.916 -9.2044 0.2193 -3.97569e-016 -7.95139e-016 3.18055e-015 -0.0117 -4.1944 -0.0248 0.0129473 0.00231697 -8.70038e-005 -0.0071 -2.3249 -0.0142 9.93923e-017 -7.95139e-016 1.59028e-015 -0.6113 -8.7231 -2.0637 -3.97569e-016 -7.95139e-016 3.18055e-015 0.1927 -3.8059 -0.2383 0.0163314 0.00303369 -0.000872333 0.1091 -2.1688 -0.1362 3.97569e-016 7.95139e-016 -3.18055e-015 0.6151 -8.0947 -3.564 -3.97569e-016 -7.95139e-016 3.18055e-015 0.4882 -2.341 -0.6462 0.0145763 0.00367772 -0.00326275 0.3574 -1.7166 -0.4742 9.93923e-017 -3.97569e-016 -0 1.4199 -1.8761 1.4221 -3.97569e-016 -7.95139e-016 3.18055e-015 1.1472 -3.4929 2.6336 -1.98785e-016 -3.97569e-016 3.18055e-015 0.8229 -2.3 1.6571 -1.98785e-016 0 3.18055e-015 -9.412 3.9771 -0.7758 3.42482 1.32465 -0.0626183 -0.7531 -40.938 0 0.000117508 0.717283 0.000978199 0 -40.1986 0 -3.4257 -2.04197 -0.0604716 8.88178e-016 -4.4182 9.239 6.47761e-025 0 -0 9.4119 3.9773 -0.7758 -3.42483 1.34017 0.0627307 0.7532 -40.9383 -2.22045e-016 -0.000193936 0.682302 -0.0013703 -8.88179e-016 -40.1986 0 3.42574 -2.02253 0.0595886 -8.88178e-016 -4.4182 9.239 -8.45714e-024 0 -7.40531e-025 
34.8204 27.6694 14.7611 92.8321 89.9863 135.161 7.10543e-015 8.7983 -4.7612 7.24259 3.68087 3.89276 -7.10543e-015 8.0291 0.4195 14.2673 7.81632 7.31358 -3.55271e-015 9.9351 -2.2114 14.2674 7.81634 7.3136 1.42109e-014 22.3885 -0.4656 27.1696 -0.700647 -7.58096 -0.0001 12.643 3.4389 0.844253 -1.74389 -29.2594 2.2603 21.606 7.4023 10.5893 0.930029 25.5956 13.5163 -1.1332 -5.0146 75.129 -12.4719 -22.8689 -0.0995 -28.05 -0.2431 74.2329 -54.8221 47.5886 0.0679 -23.3996 -0.1402 -9.51932 3.23879 -8.70093 0.7932 -9.069 2.5189 1.76556e-031 -1.59028e-015 6.36111e-015 -0.8272 -3.3923 0.5977 -7.95139e-016 1.59028e-015 3.18055e-015 -0.5649 -2.3158 0.4082 7.95139e-016 0 9.54166e-015 0.9159 -9.2044 0.2193 1.76556e-031 -1.59028e-015 6.36111e-015 0.0117 -4.1944 -0.0248 -0.0128136 0.00232185 8.34159e-005 0.0071 -2.3249 -0.0142 -3.18055e-015 4.77083e-015 3.18055e-015 0.6113 -8.7231 -2.0637 1.76556e-031 -1.59028e-015 6.36111e-015 -0.1927 -3.8059 -0.2383 -0.0160701 0.00300022 0.000855664 -0.1091 -2.1688 -0.1362 7.95139e-016 0 6.36111e-015 -0.6151 -8.0947 -3.5641 1.76556e-031 -1.59028e-015 6.36111e-015 -0.4882 -2.341 -0.6462 -0.0126301 0.00313381 0.00283132 -0.3575 -1.7167 -0.4742 -1.59028e-015 -4.77083e-015 -0 -1.42 -1.8761 1.4223 1.76556e-031 -1.59028e-015 6.36111e-015 -1.1471 -3.4929 2.6334 -7.95139e-016 1.59028e-015 3.18055e-015 -0.823 -2.3 1.6571 7.95139e-016 0 9.54166e-015 -2.2603 21.606 7.4023 27.6031 6.56361 26.3897 -13.5187 -1.1334 -5.0155 -51.1837 24.1686 -72.3562 0.0994 -28.0499 -0.2431 0.79469 -1.51457 -15.2522 -0.0679 -23.3996 -0.1402 29.6961 9.34257 -2.77451 -0.7932 -9.0691 2.5189 3.18055e-015 3.18055e-015 -0 0.8272 -3.3923 0.5977 3.18055e-015 -3.18055e-015 1.59028e-015 0.565 -2.3158 0.4082 3.18055e-015 0 1.59028e-015 -0.916 -9.2044 0.2193 3.18055e-015 3.18055e-015 -0 -0.0117 -4.1944 -0.0248 0.0129832 0.00232538 -8.41626e-005 -0.0071 -2.3249 -0.0142 7.30186e-006 -1.00168e-005 -5.11352e-006 -0.6113 -8.7231 -2.0637 3.18055e-015 3.18055e-015 -0 0.1927 -3.8059 -0.2383 0.016386 0.00303854 -0.000864243 0.1091 -2.1688 -0.1362 -3.18055e-015 -6.36111e-015 -0 0.6151 -8.0947 -3.564 3.18055e-015 3.18055e-015 -0 0.4882 -2.341 -0.6462 0.0145748 0.00367661 -0.00325796 0.3574 -1.7166 -0.4742 0 3.18055e-015 -0 1.4199 -1.8761 1.4221 3.18055e-015 3.18055e-015 -0 1.1472 -3.4929 2.6336 3.18055e-015 -3.18055e-015 1.59028e-015 0.8229 -2.3 1.6571 3.18055e-015 0 1.59028e-015 -9.412 3.9771 -0.7758 145.897 -36.8141 154.281 -0.7531 -40.938 0 85.274 47.5617 -84.9265 3.55271e-015 -40.1986 -7.10543e-015 -1.55091 8.06794 11.0635 0 -4.4182 9.239 2.20695e-032 3.18055e-015 -3.97569e-016 9.4119 3.9773 -0.7758 131.318 -46.7159 129.355 0.7532 -40.9383 -3.55271e-015 44.5377 69.5614 -41.1945 3.55271e-015 -40.1986 -3.55271e-015 -18.7302 6.51231 10.1049 3.55271e-015 -4.4182 9.239 -5.60928e-006 9.95165e-006 -8.55412e-006 
34.8209 27.6676 15.0209 92.8372 89.9863 135.156 7.10543e-015 8.7983 -4.7612 7.42082 3.72002 3.85433 0 8.0291 0.4195 14.6259 7.90008 7.21919 -7.10543e-015 9.9351 -2.2114 14.626 7.9001 7.2192 0 22.3885 -0.4656 26.7264 -0.689626 -7.57635 -0.0001 12.643 3.4389 0.642347 -1.69305 -28.9628 2.2603 21.606 7.4023 9.21175 1.17281 25.1916 13.5163 -1.1332 -5.0146 75.1289 -12.4719 -22.8689 -0.0995 -28.05 -0.2431 73.4405 -54.6552 46.9497 0.0679 -23.3996 -0.1402 -8.90554 3.1866 -8.96013 0.7932 -9.069 2.5189 1.59028e-015 0 -0 -0.8272 -3.3923 0.5977 5.29669e-031 4.77083e-015 -6.36111e-015 -0.5649 -2.3158 0.4082 7.95139e-016 3.18055e-015 3.18055e-015 0.9159 -9.2044 0.2193 1.59028e-015 0 -0 0.0117 -4.1944 -0.0248 -0.0128235 0.002329 8.49853e-005 0.0071 -2.3249 -0.0142 -7.95139e-016 -1.59028e-015 3.18055e-015 0.6113 -8.7231 -2.0637 1.59028e-015 0 -0 -0.1927 -3.8059 -0.2383 -0.0160256 0.0029909 0.000859221 -0.1091 -2.1688 -0.1362 -2.64834e-031 4.77083e-015 3.18055e-015 -0.6151 -8.0947 -3.5641 1.59028e-015 0 -0 -0.4882 -2.341 -0.6462 -0.0126246 0.00313648 0.00283434 -0.3575 -1.7167 -0.4742 -1.59028e-015 -4.77083e-015 6.36111e-015 -1.42 -1.8761 1.4223 1.59028e-015 0 -0 -1.1471 -3.4929 2.6334 5.29669e-031 4.77083e-015 -6.36111e-015 -0.823 -2.3 1.6571 7.95139e-016 3.18055e-015 3.18055e-015 -2.2603 21.606 7.4023 26.9884 6.56696 26.4097 -13.5187 -1.1334 -5.0155 -51.1838 24.1686 -72.3562 0.0994 -28.0499 -0.2431 0.794697 -1.51453 -15.2522 -0.0679 -23.3996 -0.1402 29.5345 9.21694 -2.73967 -0.7932 -9.0691 2.5189 -3.18055e-015 9.54166e-015 -3.18055e-015 0.8272 -3.3923 0.5977 -3.18055e-015 6.36111e-015 -1.59028e-015 0.565 -2.3158 0.4082 -3.18055e-015 3.18055e-015 -1.59028e-015 -0.916 -9.2044 0.2193 -3.18055e-015 9.54166e-015 -3.18055e-015 -0.0117 -4.1944 -0.0248 0.0129319 0.00231891 -8.28456e-005 -0.0071 -2.3249 -0.0142 0 0 -1.59028e-015 -0.6113 -8.7231 -2.0637 -3.18055e-015 9.54166e-015 -3.18055e-015 0.1927 -3.8059 -0.2383 0.0163194 0.00303185 -0.000867333 0.1091 -2.1688 -0.1362 -7.94503e-031 9.54166e-015 4.77083e-015 0.6151 -8.0947 -3.564 -3.18055e-015 9.54166e-015 -3.18055e-015 0.4882 -2.341 -0.6462 0.0145756 0.00367788 -0.00326856 0.3574 -1.7166 -0.4742 3.18055e-015 -3.18055e-015 3.18055e-015 1.4199 -1.8761 1.4221 -3.18055e-015 9.54166e-015 -3.18055e-015 1.1472 -3.4929 2.6336 -3.18055e-015 6.36111e-015 -1.59028e-015 0.8229 -2.3 1.6571 -3.18055e-015 3.18055e-015 -1.59028e-015 -9.412 3.9771 -0.7758 145.341 -36.4388 154.514 -0.7531 -40.938 3.55271e-015 85.2276 47.5596 -84.8684 0 -40.1986 0 -0.888021 7.82213 10.4873 0 -4.4182 9.239 2.91599e-006 2.70965e-007 -4.54467e-006 9.4119 3.9773 -0.7758 130.81 -46.6385 129.279 0.7532 -40.9383 0 44.4829 69.543 -41.1385 0 -40.1986 0 -18.4531 6.41568 9.76984 0 -4.4182 9.239 -2.63292e-006 -1.55315e-006 7.95898e-006 
34.8215 27.6659 15.2808 92.8321 89.9863 135.161 0 8.7983 -4.7612 7.5992 3.75916 3.81591 7.10543e-015 8.0291 0.4195 14.9849 7.98344 7.12453 0 9.9351 -2.2114 14.9849 7.98346 7.12455 7.10543e-015 22.3885 -0.4656 26.2826 -0.678648 -7.57166 -0.0001 12.643 3.4389 0.440022 -1.64321 -28.6658 2.2603 21.606 7.4023 7.83216 1.4259 24.7924 13.5163 -1.1332 -5.0146 75.129 -12.4719 -22.8689 -0.0995 -28.05 -0.2431 72.6545 -54.4832 46.3175 0.0679 -23.3996 -0.1402 -8.29176 3.13158 -9.21886 0.7932 -9.069 2.5189 -4.59311e-007 -1.56874e-006 1.55152e-006 -0.8272 -3.3923 0.5977 -1.93692e-006 1.36681e-006 -4.40411e-006 -0.5649 -2.3158 0.4082 7.95139e-016 1.59028e-015 -3.18055e-015 0.9159 -9.2044 0.2193 -4.59311e-007 -1.56874e-006 1.55152e-006 0.0117 -4.1944 -0.0248 -0.0128339 0.00232896 8.44899e-005 0.0071 -2.3249 -0.0142 4.06253e-007 3.18246e-006 7.00296e-007 0.6113 -8.7231 -2.0637 -4.59311e-007 -1.56874e-006 1.55152e-006 -0.1927 -3.8059 -0.2383 -0.0160465 0.00300114 0.000858292 -0.1091 -2.1688 -0.1362 -0 -4.77083e-015 -0 -0.6151 -8.0947 -3.5641 -4.59311e-007 -1.56874e-006 1.55152e-006 -0.4882 -2.341 -0.6462 -0.0125727 0.00311465 0.00282095 -0.3575 -1.7167 -0.4742 -8.82781e-032 -1.59028e-015 -3.18055e-015 -1.42 -1.8761 1.4223 -4.59311e-007 -1.56874e-006 1.55152e-006 -1.1471 -3.4929 2.6334 -1.93692e-006 1.36681e-006 -4.40411e-006 -0.823 -2.3 1.6571 7.95139e-016 1.59028e-015 -3.18055e-015 -2.2603 21.606 7.4023 26.3734 6.57008 26.4298 -13.5187 -1.1334 -5.0155 -51.1838 24.1685 -72.3562 0.0994 -28.0499 -0.2431 0.794607 -1.51449 -15.2523 -0.0679 -23.3996 -0.1402 29.3729 9.09122 -2.70529 -0.7932 -9.0691 2.5189 3.18055e-015 -6.36111e-015 3.18055e-015 0.8272 -3.3923 0.5977 -9.54166e-015 0 -1.59028e-015 0.565 -2.3158 0.4082 -3.18055e-015 -3.18055e-015 -0 -0.916 -9.2044 0.2193 3.18055e-015 -6.36111e-015 3.18055e-015 -0.0117 -4.1944 -0.0248 0.0129938 0.00233102 -8.88333e-005 -0.0071 -2.3249 -0.0142 6.36111e-015 9.54166e-015 -0 -0.6113 -8.7231 -2.0637 3.18055e-015 -6.36111e-015 3.18055e-015 0.1927 -3.8059 -0.2383 0.0163227 0.00303012 -0.000869314 0.1091 -2.1688 -0.1362 3.18055e-015 3.18055e-015 3.18055e-015 0.6151 -8.0947 -3.564 3.18055e-015 -6.36111e-015 3.18055e-015 0.4882 -2.341 -0.6462 0.0145657 0.00368337 -0.00325928 0.3574 -1.7166 -0.4742 -9.54166e-015 0 3.18055e-015 1.4199 -1.8761 1.4221 3.18055e-015 -6.36111e-015 3.18055e-015 1.1472 -3.4929 2.6336 -9.54166e-015 0 -1.59028e-015 0.8229 -2.3 1.6571 -3.18055e-015 -3.18055e-015 -0 -9.412 3.9771 -0.7758 144.786 -36.0652 154.751 -0.7531 -40.938 3.55271e-015 85.1813 47.5575 -84.8105 3.55271e-015 -40.1986 0 -0.227866 7.56939 9.9138 -3.55271e-015 -4.4182 9.239 -7.95139e-016 9.54166e-015 1.98785e-015 9.4119 3.9773 -0.7758 130.302 -46.5606 129.204 0.7532 -40.9383 -7.10543e-015 44.4283 69.5248 -41.0828 -3.55271e-015 -40.1986 3.55271e-015 -18.1767 6.3173 9.43526 3.55271e-015 -4.4182 9.239 7.8051e-006 -2.29665e-006 2.95913e-006 
